<mxfile host="app.diagrams.net" modified="2022-10-17T03:48:16.993Z" agent="5.0 (Windows NT 10.0; Win64; x64) AppleWebKit/537.36 (KHTML, like Gecko) Chrome/106.0.0.0 Safari/537.36 Edg/106.0.1370.47" etag="ONYaHK1CV-n8aW2ntLaT" version="20.4.0" type="github">
  <diagram id="WB5AaVKWFGcKSxYI2JzF" name="Page-1">
    <mxGraphModel dx="1510" dy="839" grid="1" gridSize="10" guides="1" tooltips="1" connect="1" arrows="1" fold="1" page="1" pageScale="1" pageWidth="850" pageHeight="1100" math="0" shadow="0">
      <root>
        <mxCell id="0" />
        <mxCell id="1" parent="0" />
        <mxCell id="9t-LFGm1njIiitCsB7wG-1" value="End-User" style="swimlane;whiteSpace=wrap;startSize=23;" vertex="1" parent="1">
          <mxGeometry x="50" y="40" width="280" height="890" as="geometry" />
        </mxCell>
        <mxCell id="9t-LFGm1njIiitCsB7wG-2" value="" style="ellipse;shape=startState;fillColor=#000000;strokeColor=#ff0000;" vertex="1" parent="9t-LFGm1njIiitCsB7wG-1">
          <mxGeometry x="125.00999999999999" y="30" width="30" height="30" as="geometry" />
        </mxCell>
        <mxCell id="9t-LFGm1njIiitCsB7wG-3" value="" style="edgeStyle=elbowEdgeStyle;elbow=horizontal;verticalAlign=bottom;endArrow=open;endSize=8;strokeColor=#000000;endFill=1;rounded=0;entryX=0.5;entryY=0;entryDx=0;entryDy=0;" edge="1" parent="9t-LFGm1njIiitCsB7wG-1" source="9t-LFGm1njIiitCsB7wG-2" target="9t-LFGm1njIiitCsB7wG-4">
          <mxGeometry x="203.88" y="38" as="geometry">
            <mxPoint x="219.38" y="108" as="targetPoint" />
          </mxGeometry>
        </mxCell>
        <mxCell id="9t-LFGm1njIiitCsB7wG-26" style="edgeStyle=orthogonalEdgeStyle;rounded=0;orthogonalLoop=1;jettySize=auto;html=1;" edge="1" parent="9t-LFGm1njIiitCsB7wG-1" source="9t-LFGm1njIiitCsB7wG-4" target="9t-LFGm1njIiitCsB7wG-25">
          <mxGeometry relative="1" as="geometry" />
        </mxCell>
        <mxCell id="9t-LFGm1njIiitCsB7wG-4" value="User Clicks on Forget Password button" style="rounded=1;whiteSpace=wrap;html=1;" vertex="1" parent="9t-LFGm1njIiitCsB7wG-1">
          <mxGeometry x="61.870000000000005" y="90" width="156.25" height="40" as="geometry" />
        </mxCell>
        <mxCell id="9t-LFGm1njIiitCsB7wG-25" value="User Enters account Email" style="rounded=1;whiteSpace=wrap;html=1;" vertex="1" parent="9t-LFGm1njIiitCsB7wG-1">
          <mxGeometry x="61.879999999999995" y="170" width="156.25" height="40" as="geometry" />
        </mxCell>
        <mxCell id="9t-LFGm1njIiitCsB7wG-38" style="edgeStyle=orthogonalEdgeStyle;rounded=0;orthogonalLoop=1;jettySize=auto;html=1;entryX=0.5;entryY=1;entryDx=0;entryDy=0;" edge="1" parent="9t-LFGm1njIiitCsB7wG-1" source="9t-LFGm1njIiitCsB7wG-37" target="9t-LFGm1njIiitCsB7wG-25">
          <mxGeometry relative="1" as="geometry" />
        </mxCell>
        <mxCell id="9t-LFGm1njIiitCsB7wG-37" value="Display Error Message" style="rounded=1;whiteSpace=wrap;html=1;" vertex="1" parent="9t-LFGm1njIiitCsB7wG-1">
          <mxGeometry x="61.870000000000005" y="270" width="156.25" height="40" as="geometry" />
        </mxCell>
        <mxCell id="9t-LFGm1njIiitCsB7wG-44" style="edgeStyle=orthogonalEdgeStyle;rounded=0;orthogonalLoop=1;jettySize=auto;html=1;entryX=0.5;entryY=0;entryDx=0;entryDy=0;" edge="1" parent="9t-LFGm1njIiitCsB7wG-1" source="9t-LFGm1njIiitCsB7wG-41" target="9t-LFGm1njIiitCsB7wG-43">
          <mxGeometry relative="1" as="geometry" />
        </mxCell>
        <mxCell id="9t-LFGm1njIiitCsB7wG-41" value="User Opens Password Recovery page using the received link via the email" style="rounded=1;whiteSpace=wrap;html=1;" vertex="1" parent="9t-LFGm1njIiitCsB7wG-1">
          <mxGeometry x="30.93" y="467.5" width="218.12" height="65" as="geometry" />
        </mxCell>
        <mxCell id="9t-LFGm1njIiitCsB7wG-43" value="User Enters New Password" style="rounded=1;whiteSpace=wrap;html=1;" vertex="1" parent="9t-LFGm1njIiitCsB7wG-1">
          <mxGeometry x="41.89" y="580" width="196.25" height="50" as="geometry" />
        </mxCell>
        <mxCell id="9t-LFGm1njIiitCsB7wG-51" style="edgeStyle=orthogonalEdgeStyle;rounded=0;orthogonalLoop=1;jettySize=auto;html=1;entryX=0.5;entryY=1;entryDx=0;entryDy=0;" edge="1" parent="9t-LFGm1njIiitCsB7wG-1" source="9t-LFGm1njIiitCsB7wG-49" target="9t-LFGm1njIiitCsB7wG-43">
          <mxGeometry relative="1" as="geometry" />
        </mxCell>
        <mxCell id="9t-LFGm1njIiitCsB7wG-49" value="Display Error Message" style="rounded=1;whiteSpace=wrap;html=1;" vertex="1" parent="9t-LFGm1njIiitCsB7wG-1">
          <mxGeometry x="61.89" y="680" width="156.25" height="40" as="geometry" />
        </mxCell>
        <mxCell id="9t-LFGm1njIiitCsB7wG-57" style="edgeStyle=orthogonalEdgeStyle;rounded=0;orthogonalLoop=1;jettySize=auto;html=1;" edge="1" parent="9t-LFGm1njIiitCsB7wG-1" source="9t-LFGm1njIiitCsB7wG-54" target="9t-LFGm1njIiitCsB7wG-56">
          <mxGeometry relative="1" as="geometry" />
        </mxCell>
        <mxCell id="9t-LFGm1njIiitCsB7wG-54" value="Display &quot;Password Updated Successfully&quot;" style="rounded=1;whiteSpace=wrap;html=1;" vertex="1" parent="9t-LFGm1njIiitCsB7wG-1">
          <mxGeometry x="61.870000000000005" y="760" width="156.25" height="40" as="geometry" />
        </mxCell>
        <mxCell id="9t-LFGm1njIiitCsB7wG-56" value="" style="ellipse;html=1;shape=endState;fillColor=#000000;strokeColor=#ff0000;" vertex="1" parent="9t-LFGm1njIiitCsB7wG-1">
          <mxGeometry x="124.99000000000001" y="840" width="30" height="30" as="geometry" />
        </mxCell>
        <mxCell id="9t-LFGm1njIiitCsB7wG-8" value="System" style="swimlane;whiteSpace=wrap" vertex="1" parent="1">
          <mxGeometry x="330" y="40" width="400" height="890" as="geometry" />
        </mxCell>
        <mxCell id="9t-LFGm1njIiitCsB7wG-35" value="Yes" style="edgeStyle=orthogonalEdgeStyle;rounded=0;orthogonalLoop=1;jettySize=auto;html=1;entryX=0.5;entryY=0;entryDx=0;entryDy=0;exitX=1;exitY=0.5;exitDx=0;exitDy=0;" edge="1" parent="9t-LFGm1njIiitCsB7wG-8" source="9t-LFGm1njIiitCsB7wG-28" target="9t-LFGm1njIiitCsB7wG-34">
          <mxGeometry x="-0.632" relative="1" as="geometry">
            <mxPoint x="-1" as="offset" />
          </mxGeometry>
        </mxCell>
        <mxCell id="9t-LFGm1njIiitCsB7wG-28" value="Does it Pass &lt;br&gt;Client-Side &amp;amp; Server-Side Validation?" style="rhombus;whiteSpace=wrap;html=1;" vertex="1" parent="9t-LFGm1njIiitCsB7wG-8">
          <mxGeometry x="70" y="125" width="170" height="130" as="geometry" />
        </mxCell>
        <mxCell id="9t-LFGm1njIiitCsB7wG-40" value="Yes" style="edgeStyle=orthogonalEdgeStyle;rounded=0;orthogonalLoop=1;jettySize=auto;html=1;entryX=0.5;entryY=0;entryDx=0;entryDy=0;" edge="1" parent="9t-LFGm1njIiitCsB7wG-8" source="9t-LFGm1njIiitCsB7wG-34" target="9t-LFGm1njIiitCsB7wG-47">
          <mxGeometry x="-0.3332" relative="1" as="geometry">
            <mxPoint as="offset" />
          </mxGeometry>
        </mxCell>
        <mxCell id="9t-LFGm1njIiitCsB7wG-34" value="Is the User Registered &lt;br&gt;in the System?" style="rhombus;whiteSpace=wrap;html=1;" vertex="1" parent="9t-LFGm1njIiitCsB7wG-8">
          <mxGeometry x="218.13" y="290" width="170" height="130" as="geometry" />
        </mxCell>
        <mxCell id="9t-LFGm1njIiitCsB7wG-36" value="Send Password Recovery Email to the User" style="rounded=1;whiteSpace=wrap;html=1;" vertex="1" parent="9t-LFGm1njIiitCsB7wG-8">
          <mxGeometry x="17" y="480" width="156.25" height="40" as="geometry" />
        </mxCell>
        <mxCell id="9t-LFGm1njIiitCsB7wG-53" value="Yes" style="edgeStyle=orthogonalEdgeStyle;rounded=0;orthogonalLoop=1;jettySize=auto;html=1;entryX=0.56;entryY=0.004;entryDx=0;entryDy=0;entryPerimeter=0;exitX=1;exitY=0.5;exitDx=0;exitDy=0;" edge="1" parent="9t-LFGm1njIiitCsB7wG-8" source="9t-LFGm1njIiitCsB7wG-45" target="9t-LFGm1njIiitCsB7wG-52">
          <mxGeometry x="-0.638" relative="1" as="geometry">
            <mxPoint as="offset" />
          </mxGeometry>
        </mxCell>
        <mxCell id="9t-LFGm1njIiitCsB7wG-45" value="Does it Pass &lt;br&gt;Client-Side &amp;amp; Server-Side Validation?" style="rhombus;whiteSpace=wrap;html=1;" vertex="1" parent="9t-LFGm1njIiitCsB7wG-8">
          <mxGeometry x="70" y="540" width="170" height="130" as="geometry" />
        </mxCell>
        <mxCell id="9t-LFGm1njIiitCsB7wG-48" style="edgeStyle=orthogonalEdgeStyle;rounded=0;orthogonalLoop=1;jettySize=auto;html=1;entryX=1;entryY=0.5;entryDx=0;entryDy=0;" edge="1" parent="9t-LFGm1njIiitCsB7wG-8" source="9t-LFGm1njIiitCsB7wG-47" target="9t-LFGm1njIiitCsB7wG-36">
          <mxGeometry relative="1" as="geometry" />
        </mxCell>
        <mxCell id="9t-LFGm1njIiitCsB7wG-47" value="Display &quot;Password Recovery Email has been sent&quot;" style="rounded=1;whiteSpace=wrap;html=1;" vertex="1" parent="9t-LFGm1njIiitCsB7wG-8">
          <mxGeometry x="220.01" y="475" width="166.25" height="50" as="geometry" />
        </mxCell>
        <mxCell id="9t-LFGm1njIiitCsB7wG-52" value="Update the User&#39;s Password" style="rounded=1;whiteSpace=wrap;html=1;" vertex="1" parent="9t-LFGm1njIiitCsB7wG-8">
          <mxGeometry x="210" y="760" width="171.26" height="40" as="geometry" />
        </mxCell>
        <mxCell id="9t-LFGm1njIiitCsB7wG-29" style="edgeStyle=orthogonalEdgeStyle;rounded=0;orthogonalLoop=1;jettySize=auto;html=1;entryX=0;entryY=0.5;entryDx=0;entryDy=0;" edge="1" parent="1" source="9t-LFGm1njIiitCsB7wG-25" target="9t-LFGm1njIiitCsB7wG-28">
          <mxGeometry relative="1" as="geometry" />
        </mxCell>
        <mxCell id="9t-LFGm1njIiitCsB7wG-30" value="" style="edgeStyle=orthogonalEdgeStyle;rounded=0;orthogonalLoop=1;jettySize=auto;html=1;entryX=1;entryY=0.5;entryDx=0;entryDy=0;exitX=0.5;exitY=1;exitDx=0;exitDy=0;" edge="1" parent="1" source="9t-LFGm1njIiitCsB7wG-28" target="9t-LFGm1njIiitCsB7wG-37">
          <mxGeometry x="0.2895" relative="1" as="geometry">
            <Array as="points">
              <mxPoint x="485" y="330" />
            </Array>
            <mxPoint as="offset" />
          </mxGeometry>
        </mxCell>
        <mxCell id="9t-LFGm1njIiitCsB7wG-31" value="No" style="edgeLabel;html=1;align=center;verticalAlign=middle;resizable=0;points=[];" vertex="1" connectable="0" parent="9t-LFGm1njIiitCsB7wG-30">
          <mxGeometry x="-0.8124" y="-1" relative="1" as="geometry">
            <mxPoint x="1" y="-8" as="offset" />
          </mxGeometry>
        </mxCell>
        <mxCell id="9t-LFGm1njIiitCsB7wG-39" value="No" style="edgeStyle=orthogonalEdgeStyle;rounded=0;orthogonalLoop=1;jettySize=auto;html=1;entryX=0.5;entryY=1;entryDx=0;entryDy=0;" edge="1" parent="1" source="9t-LFGm1njIiitCsB7wG-34" target="9t-LFGm1njIiitCsB7wG-37">
          <mxGeometry x="-0.8442" relative="1" as="geometry">
            <mxPoint as="offset" />
          </mxGeometry>
        </mxCell>
        <mxCell id="9t-LFGm1njIiitCsB7wG-42" style="edgeStyle=orthogonalEdgeStyle;rounded=0;orthogonalLoop=1;jettySize=auto;html=1;entryX=1;entryY=0.5;entryDx=0;entryDy=0;" edge="1" parent="1" source="9t-LFGm1njIiitCsB7wG-36" target="9t-LFGm1njIiitCsB7wG-41">
          <mxGeometry relative="1" as="geometry" />
        </mxCell>
        <mxCell id="9t-LFGm1njIiitCsB7wG-46" style="edgeStyle=orthogonalEdgeStyle;rounded=0;orthogonalLoop=1;jettySize=auto;html=1;entryX=0;entryY=0.5;entryDx=0;entryDy=0;" edge="1" parent="1" source="9t-LFGm1njIiitCsB7wG-43" target="9t-LFGm1njIiitCsB7wG-45">
          <mxGeometry relative="1" as="geometry" />
        </mxCell>
        <mxCell id="9t-LFGm1njIiitCsB7wG-50" value="No" style="edgeStyle=orthogonalEdgeStyle;rounded=0;orthogonalLoop=1;jettySize=auto;html=1;entryX=1;entryY=0.5;entryDx=0;entryDy=0;" edge="1" parent="1" source="9t-LFGm1njIiitCsB7wG-45" target="9t-LFGm1njIiitCsB7wG-49">
          <mxGeometry x="-0.5538" relative="1" as="geometry">
            <Array as="points">
              <mxPoint x="485" y="740" />
            </Array>
            <mxPoint as="offset" />
          </mxGeometry>
        </mxCell>
        <mxCell id="9t-LFGm1njIiitCsB7wG-55" style="edgeStyle=orthogonalEdgeStyle;rounded=0;orthogonalLoop=1;jettySize=auto;html=1;entryX=1;entryY=0.5;entryDx=0;entryDy=0;" edge="1" parent="1" source="9t-LFGm1njIiitCsB7wG-52" target="9t-LFGm1njIiitCsB7wG-54">
          <mxGeometry relative="1" as="geometry" />
        </mxCell>
      </root>
    </mxGraphModel>
  </diagram>
</mxfile>
